<?xml version="1.0" encoding="iso-8859-1" standalone="no"?> 
<?xml-stylesheet href="latex-MbJhYG.css" type="text/css"?> 
<svg xmlns="http://www.w3.org/2000/svg" xmlns:xlink="http://www.w3.org/1999/xlink" width="220.19867pt" height="181.86508pt" viewBox="80.63387 67.68938 220.19867 181.86508 "> 
<g transform="translate(0, 249.55446 ) scale(1,-1) translate(0,-67.68938 )"> 

<g stroke="#000" fill="#000">
 <g stroke-width="0.4">
 <g stroke-width="0.2">
 <g stroke="#808080" fill="#808080">
 <path d=" M 97.49985 80.99976 L 97.49985 85.26784 M 136.49979 80.99976 L 136.49979 85.26784 M 175.49973 80.99976 L 175.49973 85.26784 M 214.49966 80.99976 L 214.49966 85.26784 M 253.4996 80.99976 L 253.4996 85.26784 M 292.49954 80.99976 L 292.49954 85.26784 M 97.49985 242.99927 L 97.49985 238.73117 M 136.49979 242.99927 L 136.49979 238.73117 M 175.49973 242.99927 L 175.49973 238.73117 M 214.49966 242.99927 L 214.49966 238.73117 M 253.4996 242.99927 L 253.4996 238.73117 M 292.49954 242.99927 L 292.49954 238.73117  " fill="none"/>
 </g>
 </g>
 <g stroke-width="0.2">
 <g stroke="#808080" fill="#808080">
 <path d=" M 97.49985 80.99976 L 101.7684 80.99976 M 97.49985 113.39966 L 101.7684 113.39966 M 97.49985 145.79956 L 101.7684 145.79956 M 97.49985 178.19946 L 101.7684 178.19946 M 97.49985 210.59937 L 101.7684 210.59937 M 97.49985 242.99927 L 101.7684 242.99927 M 292.49954 80.99976 L 288.23097 80.99976 M 292.49954 113.39966 L 288.23097 113.39966 M 292.49954 145.79956 L 288.23097 145.79956 M 292.49954 178.19946 L 288.23097 178.19946 M 292.49954 210.59937 L 288.23097 210.59937 M 292.49954 242.99927 L 288.23097 242.99927  " fill="none"/>
 </g>
 </g>
 <path d=" M 97.49985 80.99976 L 97.49985 242.99927 L 292.49954 242.99927 L 292.49954 80.99976 L 97.49985 80.99976 Z  " fill="none"/>
 <g transform="translate(94.99985,71.02235)">
 <g fill="#000">
 <text style="stroke:none" transform="scale(1,-1) translate(2.5,0)" text-anchor="middle"  font-size="10"> 
<g fill="#000">
 <g stroke="none"> 0</g> </g>
 </text> 
</g>
 </g>
 <g transform="translate(133.99979,71.02235)">
 <g fill="#000">
 <text style="stroke:none" transform="scale(1,-1) translate(2.5,0)" text-anchor="middle"  font-size="10"> 
<g fill="#000">
 <g stroke="none"> 2</g> </g>
 </text> 
</g>
 </g>
 <g transform="translate(172.99973,71.02235)">
 <g fill="#000">
 <text style="stroke:none" transform="scale(1,-1) translate(2.5,0)" text-anchor="middle"  font-size="10"> 
<g fill="#000">
 <g stroke="none"> 4</g> </g>
 </text> 
</g>
 </g>
 <g transform="translate(211.99966,71.02235)">
 <g fill="#000">
 <text style="stroke:none" transform="scale(1,-1) translate(2.5,0)" text-anchor="middle"  font-size="10"> 
<g fill="#000">
 <g stroke="none"> 6</g> </g>
 </text> 
</g>
 </g>
 <g transform="translate(250.9996,71.02235)">
 <g fill="#000">
 <text style="stroke:none" transform="scale(1,-1) translate(2.5,0)" text-anchor="middle"  font-size="10"> 
<g fill="#000">
 <g stroke="none"> 8</g> </g>
 </text> 
</g>
 </g>
 <g transform="translate(287.49953,71.02235)">
 <g fill="#000">
 <text style="stroke:none" transform="scale(1,-1) translate(5.00002,0)" text-anchor="middle"  font-size="10"> 
<g fill="#000">
 <g stroke="none"> 10</g> </g>
 </text> 
</g>
 </g>
 <g transform="translate(88.96687,77.77754)">
 <g fill="#000">
 <text style="stroke:none" transform="scale(1,-1) translate(2.5,0)" text-anchor="middle"  font-size="10"> 
<g fill="#000">
 <g stroke="none"> 0 </g> </g>
 </text> 
</g>
 </g>
 <g transform="translate(88.96687,110.17744)">
 <g fill="#000">
 <text style="stroke:none" transform="scale(1,-1) translate(2.5,0)" text-anchor="middle"  font-size="10"> 
<g fill="#000">
 <g stroke="none"> 2 </g> </g>
 </text> 
</g>
 </g>
 <g transform="translate(88.96687,142.57735)">
 <g fill="#000">
 <text style="stroke:none" transform="scale(1,-1) translate(2.5,0)" text-anchor="middle"  font-size="10"> 
<g fill="#000">
 <g stroke="none"> 4 </g> </g>
 </text> 
</g>
 </g>
 <g transform="translate(88.96687,174.97725)">
 <g fill="#000">
 <text style="stroke:none" transform="scale(1,-1) translate(2.5,0)" text-anchor="middle"  font-size="10"> 
<g fill="#000">
 <g stroke="none"> 6 </g> </g>
 </text> 
</g>
 </g>
 <g transform="translate(88.96687,207.37715)">
 <g fill="#000">
 <text style="stroke:none" transform="scale(1,-1) translate(2.5,0)" text-anchor="middle"  font-size="10"> 
<g fill="#000">
 <g stroke="none"> 8 </g> </g>
 </text> 
</g>
 </g>
 <g transform="translate(83.96684,239.77705)">
 <g fill="#000">
 <text style="stroke:none" transform="scale(1,-1) translate(5.00002,0)" text-anchor="middle"  font-size="10"> 
<g fill="#000">
 <g stroke="none"> 10</g> </g>
 </text> 
</g>
 </g>
 <clipPath id="pgfcp1"><path d=" M 97.49985 80.99976 L 292.49954 80.99976 L 292.49954 242.99927 L 97.49985 242.99927 Z  "/> </clipPath>
 <g clip-path="url(#pgfcp1)">
 <g stroke="#00f" fill="#00f">
 <path d=" M 0.0 0.0 L 8.12485 6.74986 L 16.24973 13.49974 L 24.37457 20.2496 L 32.49942 26.99948 L 40.62427 33.74934 L 48.74915 40.49922 L 56.874 47.24908 L 64.99884 53.99896 L 73.12372 60.74884 L 81.24857 67.4987 L 89.37341 74.24858 L 97.49829 80.99846 L 105.62314 87.74832 L 113.74799 94.49818 L 121.87283 101.24806 L 129.99771 107.99794 L 138.12256 114.7478 L 146.2474 121.49768 L 154.37228 128.24756 L 162.49715 134.99742 L 170.622 141.74728 L 178.74687 148.49718 L 186.87172 155.24704 L 194.99657 161.9969  " fill="none"/>
 </g>
 </g>
 <g stroke="#00f" fill="#00f">
 <g stroke="#00f" fill="#00f">
 <g fill="#00c">
 <path d=" M 107.62314 87.74832 C 107.62314 88.8529 106.72772 89.74832 105.62314 89.74832 C 104.51855 89.74832 103.62314 88.8529 103.62314 87.74832 C 103.62314 86.64374 104.51855 85.74832 105.62314 85.74832 C 106.72772 85.74832 107.62314 86.64374 107.62314 87.74832 Z M 105.62314 87.74832  " />
 <path d=" M 115.74799 94.49818 C 115.74799 95.60277 114.85257 96.49818 113.74799 96.49818 C 112.6434 96.49818 111.74799 95.60277 111.74799 94.49818 C 111.74799 93.3936 112.6434 92.49818 113.74799 92.49818 C 114.85257 92.49818 115.74799 93.3936 115.74799 94.49818 Z M 113.74799 94.49818  " />
 <path d=" M 123.87283 101.24806 C 123.87283 102.35265 122.97742 103.24806 121.87283 103.24806 C 120.76825 103.24806 119.87283 102.35265 119.87283 101.24806 C 119.87283 100.14348 120.76825 99.24806 121.87283 99.24806 C 122.97742 99.24806 123.87283 100.14348 123.87283 101.24806 Z M 121.87283 101.24806  " />
 <path d=" M 131.99771 107.99794 C 131.99771 109.10252 131.1023 109.99794 129.99771 109.99794 C 128.89313 109.99794 127.99771 109.10252 127.99771 107.99794 C 127.99771 106.89336 128.89313 105.99794 129.99771 105.99794 C 131.1023 105.99794 131.99771 106.89336 131.99771 107.99794 Z M 129.99771 107.99794  " />
 <path d=" M 140.12256 114.7478 C 140.12256 115.85239 139.22714 116.7478 138.12256 116.7478 C 137.01797 116.7478 136.12256 115.85239 136.12256 114.7478 C 136.12256 113.64322 137.01797 112.7478 138.12256 112.7478 C 139.22714 112.7478 140.12256 113.64322 140.12256 114.7478 Z M 138.12256 114.7478  " />
 <path d=" M 148.2474 121.49768 C 148.2474 122.60226 147.35199 123.49768 146.2474 123.49768 C 145.14282 123.49768 144.2474 122.60226 144.2474 121.49768 C 144.2474 120.3931 145.14282 119.49768 146.2474 119.49768 C 147.35199 119.49768 148.2474 120.3931 148.2474 121.49768 Z M 146.2474 121.49768  " />
 <path d=" M 156.37228 128.24756 C 156.37228 129.35214 155.47687 130.24756 154.37228 130.24756 C 153.2677 130.24756 152.37228 129.35214 152.37228 128.24756 C 152.37228 127.14297 153.2677 126.24756 154.37228 126.24756 C 155.47687 126.24756 156.37228 127.14297 156.37228 128.24756 Z M 154.37228 128.24756  " />
 <path d=" M 164.49715 134.99742 C 164.49715 136.102 163.60173 136.99742 162.49715 136.99742 C 161.39256 136.99742 160.49715 136.102 160.49715 134.99742 C 160.49715 133.89284 161.39256 132.99742 162.49715 132.99742 C 163.60173 132.99742 164.49715 133.89284 164.49715 134.99742 Z M 162.49715 134.99742  " />
 <path d=" M 172.622 141.74728 C 172.622 142.85187 171.72658 143.74728 170.622 143.74728 C 169.51741 143.74728 168.622 142.85187 168.622 141.74728 C 168.622 140.6427 169.51741 139.74728 170.622 139.74728 C 171.72658 139.74728 172.622 140.6427 172.622 141.74728 Z M 170.622 141.74728  " />
 <path d=" M 180.74687 148.49718 C 180.74687 149.60176 179.85146 150.49718 178.74687 150.49718 C 177.64229 150.49718 176.74687 149.60176 176.74687 148.49718 C 176.74687 147.3926 177.64229 146.49718 178.74687 146.49718 C 179.85146 146.49718 180.74687 147.3926 180.74687 148.49718 Z M 178.74687 148.49718  " />
 <path d=" M 188.87172 155.24704 C 188.87172 156.35162 187.9763 157.24704 186.87172 157.24704 C 185.76714 157.24704 184.87172 156.35162 184.87172 155.24704 C 184.87172 154.14246 185.76714 153.24704 186.87172 153.24704 C 187.9763 153.24704 188.87172 154.14246 188.87172 155.24704 Z M 186.87172 155.24704  " />
 <path d=" M 196.99657 161.9969 C 196.99657 163.10149 196.10115 163.9969 194.99657 163.9969 C 193.89198 163.9969 192.99657 163.10149 192.99657 161.9969 C 192.99657 160.89232 193.89198 159.9969 194.99657 159.9969 C 196.10115 159.9969 196.99657 160.89232 196.99657 161.9969 Z M 194.99657 161.9969  " />
 <path d="  " fill="none"/>
 </g>
 </g>
 </g>
 </g>
 </g>
                                                                                        </g> 
</svg> 
